<?xml version="1.0" encoding="UTF-8"?>
<svg xmlns="http://www.w3.org/2000/svg" viewBox="0 0 600 480" width="600" height="480">
  <defs>
    <style>
      @import url('https://fonts.googleapis.com/css2?family=Cormorant+SC:wght@400;500;600;700&amp;family=Cormorant+Garamond:ital,wght@0,400;0,500;0,600;1,400;1,500&amp;display=swap');
      .name{font-family:'Cormorant SC','Cormorant Garamond','Playfair Display',Georgia,serif;font-weight:600}
      .sub{font-family:'Cormorant Garamond','Playfair Display',Georgia,serif;font-weight:500}
    </style>
    <linearGradient id="goldGradN" x1="0%" y1="0%" x2="0%" y2="100%">
      <stop offset="0%" stop-color="#efd78a"/>
      <stop offset="50%" stop-color="#d4af37"/>
      <stop offset="100%" stop-color="#a88632"/>
    </linearGradient>
  </defs>

  <!-- BRENO LIMA -->
  <text x="300" y="195" text-anchor="middle" class="name"
        font-size="108" fill="#0c1e3a" letter-spacing="2">
    Breno Lima
  </text>

  <!-- Divisor central ornamentado -->
  <g transform="translate(300, 260)">
    <line x1="-200" y1="0" x2="-28" y2="0" stroke="#d4af37" stroke-width="0.8"/>
    <line x1="28" y1="0" x2="200" y2="0" stroke="#d4af37" stroke-width="0.8"/>
    <path d="M -200,0 L -206,-3 L -211,0 L -206,3 Z" fill="#a88632"/>
    <path d="M 200,0 L 206,-3 L 211,0 L 206,3 Z" fill="#a88632"/>
    <g transform="translate(-17, 0) scale(0.52)" fill="url(#goldGradN)">
      <path d="M 0,-14 L 3,-4 L 14,0 L 3,4 L 0,14 L -3,4 L -14,0 L -3,-4 Z"/>
    </g>
    <g transform="translate(17, 0) scale(0.52)" fill="url(#goldGradN)">
      <path d="M 0,-14 L 3,-4 L 14,0 L 3,4 L 0,14 L -3,4 L -14,0 L -3,-4 Z"/>
    </g>
    <g fill="#0c1e3a">
      <path d="M 0,-11 L 14,0 L 0,11 L -14,0 Z"/>
      <path d="M 0,-5 L 8,0 L 0,5 L -8,0 Z" fill="url(#goldGradN)"/>
      <circle cx="0" cy="0" r="1.8" fill="#0c1e3a"/>
    </g>
  </g>

  <!-- ADVOCACIA -->
  <text x="300" y="348" text-anchor="middle" class="sub"
        font-size="46" fill="#0c1e3a" letter-spacing="14">
    A D V O C A C I A
  </text>
</svg>
