<?xml version="1.0" encoding="UTF-8"?>
<svg xmlns="http://www.w3.org/2000/svg" viewBox="0 0 1100 360" width="1100" height="360">
  <defs>
    <style>
      @import url('https://fonts.googleapis.com/css2?family=Cormorant+SC:wght@400;500;600;700&amp;family=Cormorant+Garamond:ital,wght@0,400;0,500;0,600;1,400;1,500&amp;display=swap');
      .name{font-family:'Cormorant SC','Cormorant Garamond','Playfair Display',Georgia,serif;font-weight:600}
      .sub{font-family:'Cormorant Garamond','Playfair Display',Georgia,serif;font-weight:500}
    </style>
    <linearGradient id="goldText" x1="0%" y1="0%" x2="0%" y2="100%">
      <stop offset="0%" stop-color="#efd78a"/>
      <stop offset="100%" stop-color="#c9a961"/>
    </linearGradient>
  </defs>

  <!-- BRENO LIMA -->
  <text x="550" y="155" text-anchor="middle" class="name"
        font-size="136" fill="url(#goldText)" letter-spacing="2">
    Breno Lima
  </text>

  <!-- Divisor central ornamentado -->
  <g transform="translate(550, 210)">
    <line x1="-280" y1="0" x2="-40" y2="0" stroke="#d4af37" stroke-width="0.8"/>
    <line x1="40" y1="0" x2="280" y2="0" stroke="#d4af37" stroke-width="0.8"/>
    <path d="M -280,0 L -286,-3 L -291,0 L -286,3 Z" fill="#efd78a"/>
    <path d="M 280,0 L 286,-3 L 291,0 L 286,3 Z" fill="#efd78a"/>
    <g transform="translate(-22, 0) scale(0.55)" fill="#efd78a">
      <path d="M 0,-14 L 3,-4 L 14,0 L 3,4 L 0,14 L -3,4 L -14,0 L -3,-4 Z"/>
    </g>
    <g transform="translate(22, 0) scale(0.55)" fill="#efd78a">
      <path d="M 0,-14 L 3,-4 L 14,0 L 3,4 L 0,14 L -3,4 L -14,0 L -3,-4 Z"/>
    </g>
    <g>
      <path d="M 0,-12 L 16,0 L 0,12 L -16,0 Z" fill="#d4af37"/>
      <path d="M 0,-6 L 9,0 L 0,6 L -9,0 Z" fill="#efd78a"/>
      <circle cx="0" cy="0" r="2" fill="#a88632"/>
    </g>
  </g>

  <!-- ADVOCACIA -->
  <text x="550" y="300" text-anchor="middle" class="sub"
        font-size="58" fill="url(#goldText)" letter-spacing="16">
    A D V O C A C I A
  </text>
</svg>
